<?xml version="1.0" encoding="UTF-8" standalone="no"?>
<!-- Created with Inkscape (http://www.inkscape.org/) -->

<svg
   xmlns:dc="http://purl.org/dc/elements/1.1/"
   xmlns:cc="http://creativecommons.org/ns#"
   xmlns:rdf="http://www.w3.org/1999/02/22-rdf-syntax-ns#"
   xmlns:svg="http://www.w3.org/2000/svg"
   xmlns="http://www.w3.org/2000/svg"
   xmlns:xlink="http://www.w3.org/1999/xlink"
   xmlns:sodipodi="http://sodipodi.sourceforge.net/DTD/sodipodi-0.dtd"
   xmlns:inkscape="http://www.inkscape.org/namespaces/inkscape"
   width="55.391384mm"
   height="60.424057mm"
   viewBox="0 0 196.26868 214.10099"
   id="svg6852"
   version="1.1"
   inkscape:version="0.91 r13725"
   sodipodi:docname="kids_backpack.svg">
  <defs
     id="defs6854">
    <clipPath
       clipPathUnits="userSpaceOnUse"
       id="clipPath4980">
      <path
         style="fill:#352cd6;fill-opacity:1;fill-rule:nonzero;stroke:none"
         d="m 442.64884,766.80769 c 0,117.57598 -54.13561,127.1626 -120.91526,127.1626 -66.77965,0 -120.91526,-9.58662 -120.91526,-127.1626 0,-117.576 60.82216,-150.02327 127.60182,-150.02327 66.77965,0 114.2287,32.44727 114.2287,150.02327 z"
         id="path4982"
         inkscape:connector-curvature="0"
         sodipodi:nodetypes="sssss" />
    </clipPath>
    <linearGradient
       inkscape:collect="always"
       xlink:href="#linearGradient5013"
       id="linearGradient5034"
       gradientUnits="userSpaceOnUse"
       x1="169.70563"
       y1="780.1261"
       x2="406.5864"
       y2="676.1814" />
    <linearGradient
       id="linearGradient5013">
      <stop
         style="stop-color:#000000;stop-opacity:0.26126125;"
         offset="0"
         id="stop5015" />
      <stop
         style="stop-color:#058fff;stop-opacity:0;"
         offset="1"
         id="stop5017" />
    </linearGradient>
  </defs>
  <sodipodi:namedview
     id="base"
     pagecolor="#ffffff"
     bordercolor="#666666"
     borderopacity="1.0"
     inkscape:pageopacity="0.0"
     inkscape:pageshadow="2"
     inkscape:zoom="0.35"
     inkscape:cx="-211.15138"
     inkscape:cy="241.33621"
     inkscape:document-units="px"
     inkscape:current-layer="layer1"
     showgrid="false"
     fit-margin-top="0"
     fit-margin-left="0"
     fit-margin-right="0"
     fit-margin-bottom="0"
     inkscape:window-width="1920"
     inkscape:window-height="1138"
     inkscape:window-x="1912"
     inkscape:window-y="503"
     inkscape:window-maximized="1" />
  <metadata
     id="metadata6857">
    <rdf:RDF>
      <cc:Work
         rdf:about="">
        <dc:format>image/svg+xml</dc:format>
        <dc:type
           rdf:resource="http://purl.org/dc/dcmitype/StillImage" />
        <dc:title></dc:title>
      </cc:Work>
    </rdf:RDF>
  </metadata>
  <g
     inkscape:label="Layer 1"
     inkscape:groupmode="layer"
     id="layer1"
     transform="translate(-164.72281,-559.59742)">
    <g
       id="g5021"
       transform="matrix(0.50322436,0,0,0.50322436,80.039507,308.16873)"
       inkscape:export-xdpi="210.18707"
       inkscape:export-ydpi="210.18707">
      <path
         sodipodi:nodetypes="csc"
         style="fill:none;stroke:#e10000;stroke-width:35;stroke-linecap:butt;stroke-linejoin:miter;stroke-miterlimit:4;stroke-dasharray:none;stroke-opacity:1"
         d="m 268.39429,608.93841 c 0,0 90.98741,-125.89174 129.02678,-22.00234 38.03939,103.88939 -37.2,197.56605 -37.2,197.56605"
         id="path4943"
         inkscape:connector-curvature="0" />
      <path
         sodipodi:nodetypes="csc"
         inkscape:connector-curvature="0"
         id="path4941"
         d="m 414.36457,595.5712 c 0,0 117.37973,-55.15433 125.86501,55.15433 8.48528,110.30866 -82.02438,195.16148 -82.02438,195.16148"
         style="fill:none;stroke:#e10000;stroke-width:35;stroke-linecap:butt;stroke-linejoin:miter;stroke-miterlimit:4;stroke-dasharray:none;stroke-opacity:1" />
      <path
         style="fill:#058fff;fill-opacity:1;fill-rule:nonzero;stroke:none"
         d="m 495.17575,749.37368 c 0,143.97059 -68.6984,155.70931 -153.44217,155.70931 -84.74377,0 -153.44217,-11.73872 -153.44217,-155.70931 0,-143.97061 77.18368,-183.70196 161.92745,-183.70196 84.74377,0 144.95689,39.73135 144.95689,183.70196 z"
         id="path4939"
         inkscape:connector-curvature="0"
         sodipodi:nodetypes="sssss" />
      <path
         style="fill:#ffec03;fill-opacity:1;fill-rule:nonzero;stroke:none"
         d="m 465.23193,826.97168 c -4.3161,3.27636 -0.82666,16.6539 7.93182,30.18957 8.89751,13.75051 14.99865,14.9381 19.63546,11.93778 4.6368,-3.00033 6.05339,-9.0524 -2.84412,-22.80291 -8.89751,-13.75051 -19.86923,-22.46526 -24.50603,-19.46494 -0.0725,0.0469 -0.14838,0.0889 -0.21713,0.1405 z m 1.99676,2.60981 c 1.03929,-0.67249 2.42695,-0.37514 3.09943,0.66413 0.67249,1.0393 0.37515,2.42696 -0.66414,3.09944 -1.03928,0.67249 -2.42694,0.37514 -3.09944,-0.66415 -0.67248,-1.03927 -0.37513,-2.42694 0.66415,-3.09942 z m 17.23434,26.63454 c 2.63818,-1.70708 6.16071,-0.95229 7.86779,1.68589 1.70708,2.63818 0.95228,6.16072 -1.6859,7.8678 -2.63818,1.70708 -6.16072,0.95227 -7.8678,-1.68591 -1.70708,-2.63818 -0.95226,-6.16071 1.68591,-7.86778 z"
         id="path4986"
         inkscape:connector-curvature="0" />
      <path
         style="fill:none;stroke:#40cd27;stroke-width:25;stroke-linecap:butt;stroke-linejoin:miter;stroke-miterlimit:4;stroke-dasharray:none;stroke-opacity:1"
         d="m 287.18927,638.45509 c 0,0 -55.15433,-117.37973 55.15433,-125.86501 110.30866,-8.48528 52.32591,103.23758 52.32591,103.23758"
         id="path4947"
         inkscape:connector-curvature="0"
         sodipodi:nodetypes="csc" />
      <path
         sodipodi:nodetypes="sssss"
         inkscape:connector-curvature="0"
         id="path4936"
         d="m 475.17575,769.37368 c 0,143.97059 -68.6984,155.70931 -153.44217,155.70931 -84.74377,0 -153.44217,-11.73872 -153.44217,-155.70931 0,-143.97061 77.18368,-183.70196 161.92745,-183.70196 84.74377,0 144.95689,39.73135 144.95689,183.70196 z"
         style="fill:#7c00e9;fill-opacity:1;fill-rule:nonzero;stroke:none" />
      <path
         style="fill:#ffec03;fill-opacity:1;fill-rule:nonzero;stroke:none"
         d="m 457.45479,768.20732 c 0,131.97304 -60.76446,142.73353 -135.72121,142.73353 -74.95675,0 -135.72121,-10.76049 -135.72121,-142.73353 0,-131.97306 68.26977,-168.39346 143.22653,-168.39346 74.95675,0 128.21589,36.4204 128.21589,168.39346 z"
         id="path4945"
         inkscape:connector-curvature="0"
         sodipodi:nodetypes="sssss" />
      <rect
         transform="matrix(1.122449,0,0,1.122449,-39.395947,-92.495182)"
         clip-path="url(#clipPath4980)"
         y="790.02557"
         x="115.25841"
         height="118.79394"
         width="395.27267"
         id="rect4976"
         style="fill:#e10000;fill-opacity:1;fill-rule:nonzero;stroke:none" />
      <path
         inkscape:connector-curvature="0"
         id="path4963"
         d="M 237.74138,794.50864 C 232.33782,794.91461 228,808.04161 228,824.16381 c 0,16.3781 4.47715,20.68965 10,20.68965 5.52285,0 10,-4.31155 10,-20.68965 0,-16.3781 -4.47715,-29.65517 -10,-29.65517 -0.0863,0 -0.17285,-0.006 -0.25862,0 z M 238,797.7845 c 1.23788,0 2.24138,1.0035 2.24138,2.24137 0,1.23789 -1.0035,2.24139 -2.24138,2.24139 -1.23788,0 -2.24138,-1.0035 -2.24138,-2.24139 0,-1.23787 1.0035,-2.24137 2.24138,-2.24137 z m 0,31.72414 c 3.14231,0 5.68966,2.54734 5.68966,5.68965 0,3.14231 -2.54735,5.68966 -5.68966,5.68966 -3.14231,0 -5.68966,-2.54735 -5.68966,-5.68966 0,-3.14231 2.54735,-5.68965 5.68966,-5.68965 z"
         style="fill:#ffec03;fill-opacity:1;fill-rule:nonzero;stroke:none" />
      <path
         inkscape:connector-curvature="0"
         id="path4984"
         d="m 188.52045,789.67201 265.01206,0"
         style="fill:none;stroke:#40cd27;stroke-width:15.0762949;stroke-linecap:round;stroke-linejoin:miter;stroke-miterlimit:4;stroke-dasharray:none;stroke-opacity:1" />
      <path
         id="path5003"
         d="m 352.1875,512.125 c -3.12536,0.0375 -6.3966,0.20358 -9.84375,0.46875 -3.44715,0.26517 -6.74429,0.62281 -9.875,1.09375 -0.0413,0.006 -0.0837,0.025 -0.125,0.0312 -3.08302,0.46713 -6.02401,1.03379 -8.8125,1.6875 -0.0722,0.017 -0.14671,0.0454 -0.21875,0.0625 -1.43698,0.34033 -2.82646,0.70637 -4.1875,1.09375 -2.57387,0.73259 -5.00103,1.5461 -7.3125,2.4375 -0.83204,0.3209 -1.63839,0.65961 -2.4375,1 -0.45956,0.19581 -0.92619,0.39165 -1.375,0.59375 -0.18116,0.0815 -0.35183,0.16746 -0.53125,0.25 -0.96157,0.44259 -1.93149,0.87272 -2.84375,1.34375 -0.22659,0.11701 -0.43266,0.25628 -0.65625,0.375 -0.75096,0.3987 -1.50123,0.80116 -2.21875,1.21875 -0.38403,0.22351 -0.75041,0.45871 -1.125,0.6875 -0.70216,0.42891 -1.39302,0.86557 -2.0625,1.3125 -0.92852,0.61986 -1.8204,1.25322 -2.6875,1.90625 -0.007,0.005 -0.0247,-0.005 -0.0312,0 -0.0541,0.0408 -0.1024,0.0841 -0.15625,0.125 -0.75589,0.57401 -1.47743,1.18312 -2.1875,1.78125 -0.43571,0.36728 -0.86245,0.74899 -1.28125,1.125 -0.32421,0.29101 -0.65454,0.57891 -0.96875,0.875 -0.10018,0.0944 -0.21332,0.18636 -0.3125,0.28125 -0.58995,0.56486 -1.164,1.13638 -1.71875,1.71875 -0.5183,0.54409 -1.01171,1.09761 -1.5,1.65625 -0.263,0.30083 -0.52681,0.60135 -0.78125,0.90625 -0.23899,0.2864 -0.45596,0.5851 -0.6875,0.875 -0.40045,0.50149 -0.809,0.98842 -1.1875,1.5 -0.20228,0.2733 -0.36639,0.56768 -0.5625,0.84375 -0.38399,0.54059 -0.79551,1.07416 -1.15625,1.625 -0.12039,0.18395 -0.22591,0.37745 -0.34375,0.5625 -0.45436,0.71304 -0.89536,1.42755 -1.3125,2.15625 -0.36602,0.63941 -0.72433,1.25561 -1.0625,1.90625 -0.28801,0.55365 -0.54416,1.12623 -0.8125,1.6875 -0.2569,0.53765 -0.51073,1.08079 -0.75,1.625 -0.30122,0.68513 -0.601,1.36771 -0.875,2.0625 -0.27272,0.6913 -0.53468,1.39371 -0.78125,2.09375 -0.0654,0.18586 -0.12386,0.37606 -0.1875,0.5625 -0.16642,0.48736 -0.3145,0.97762 -0.46875,1.46875 -0.20533,0.65385 -0.40943,1.30878 -0.59375,1.96875 -0.26044,0.93252 -0.49875,1.86932 -0.71875,2.8125 -0.16746,0.71795 -0.32381,1.43306 -0.46875,2.15625 -0.16068,0.80081 -0.30343,1.60005 -0.4375,2.40625 -0.0972,0.5845 -0.19755,1.16316 -0.28125,1.75 -0.10612,0.74517 -0.19616,1.50182 -0.28125,2.25 -0.10414,0.91565 -0.20722,1.83126 -0.28125,2.75 -0.008,0.10339 0.008,0.20908 0,0.3125 -0.0603,0.7831 -0.11669,1.55959 -0.15625,2.34375 -0.0175,0.34503 -0.0489,0.68615 -0.0625,1.03125 -0.0184,0.46861 -0.0199,0.93769 -0.0312,1.40625 -0.0196,0.802 -0.0313,1.60522 -0.0312,2.40625 4e-5,0.4353 -0.006,0.87772 0,1.3125 -18.42153,8.12022 -34.91214,20.12074 -48.375,37.03125 -34.14638,27.08691 -56.75,74.4377 -56.75,152.3125 0,143.97059 68.69373,155.71875 153.4375,155.71875 52.7469,0 99.28854,-4.5676 126.90625,-42.71875 28.70128,-20.6379 46.5625,-59.64937 46.5625,-133 0,-108.04186 -33.91658,-157.38478 -86.65625,-175.28125 0.0279,-0.16605 0.0666,-0.33367 0.0937,-0.5 0.7159,-4.38492 1.17562,-8.86896 1.25,-13.3125 0.0155,-0.9261 0.0191,-1.85951 0,-2.78125 -0.0189,-0.91358 -0.0698,-1.81178 -0.125,-2.71875 -0.0562,-0.92326 -0.12264,-1.83601 -0.21875,-2.75 -0.0947,-0.90095 -0.20791,-1.79791 -0.34375,-2.6875 -0.12955,-0.8484 -0.26853,-1.69526 -0.4375,-2.53125 -0.008,-0.0419 -0.0227,-0.0831 -0.0312,-0.125 -0.0321,-0.1572 -0.0602,-0.31204 -0.0937,-0.46875 -0.51169,-2.38623 -1.19191,-4.72061 -2.0625,-6.96875 -0.0287,-0.074 -0.0647,-0.14488 -0.0937,-0.21875 -0.32522,-0.82585 -0.68409,-1.63502 -1.0625,-2.4375 -0.36382,-0.77153 -0.74115,-1.53348 -1.15625,-2.28125 -0.0181,-0.0327 -0.0443,-0.0611 -0.0625,-0.0937 -0.26997,-0.48431 -0.5515,-0.96393 -0.84375,-1.4375 -0.0787,-0.12721 -0.16965,-0.24859 -0.25,-0.375 -0.33627,-0.53034 -0.66572,-1.04678 -1.03125,-1.5625 -0.0217,-0.0306 -0.0407,-0.0632 -0.0625,-0.0937 -0.0215,-0.0301 -0.0409,-0.0637 -0.0625,-0.0937 -0.38668,-0.53846 -0.79893,-1.07238 -1.21875,-1.59375 -0.0735,-0.0913 -0.14421,-0.1905 -0.21875,-0.28125 -0.0282,-0.0343 -0.0654,-0.0595 -0.0937,-0.0937 -0.0951,-0.1149 -0.1845,-0.22973 -0.28125,-0.34375 -0.19816,-0.2332 -0.38851,-0.45807 -0.59375,-0.6875 -0.21668,-0.24255 -0.43157,-0.48051 -0.65625,-0.71875 -0.0902,-0.0954 -0.18979,-0.18655 -0.28125,-0.28125 -0.48667,-0.50476 -1.00719,-1.01582 -1.53125,-1.5 -0.39444,-0.36442 -0.80263,-0.71025 -1.21875,-1.0625 -0.12536,-0.10612 -0.24765,-0.20751 -0.375,-0.3125 -0.32766,-0.26971 -0.65903,-0.55041 -1,-0.8125 -0.0409,-0.0314 -0.0839,-0.0624 -0.125,-0.0937 -0.45673,-0.34843 -0.9254,-0.69683 -1.40625,-1.03125 -0.33376,-0.23189 -0.68569,-0.46255 -1.03125,-0.6875 -0.42265,-0.27531 -0.84067,-0.54784 -1.28125,-0.8125 -0.79985,-0.48047 -1.63972,-0.93101 -2.5,-1.375 -0.56131,-0.2897 -1.13111,-0.57021 -1.71875,-0.84375 -0.30574,-0.14232 -0.62454,-0.29965 -0.9375,-0.4375 -0.1921,-0.0844 -0.39892,-0.1673 -0.59375,-0.25 -0.74355,-0.31622 -1.49722,-0.61543 -2.28125,-0.90625 -0.0302,-0.0112 -0.0635,-0.0201 -0.0937,-0.0312 -0.95851,-0.35358 -1.94852,-0.68575 -2.96875,-1 -1.00763,-0.31037 -2.05564,-0.60454 -3.125,-0.875 -0.0509,-0.0129 -0.10525,-0.0185 -0.15625,-0.0312 -0.55699,-0.13925 -1.14479,-0.2781 -1.71875,-0.40625 -0.5747,-0.1283 -1.15807,-0.25805 -1.75,-0.375 -0.0808,-0.0159 -0.16889,-0.0155 -0.25,-0.0312 -1.10557,-0.21457 -2.23992,-0.41962 -3.40625,-0.59375 -1.26953,-0.18954 -2.56304,-0.36011 -3.90625,-0.5 -1.06968,-0.1114 -2.16384,-0.20236 -3.28125,-0.28125 -0.26592,-0.0188 -0.54384,-0.0456 -0.8125,-0.0625 -0.11127,-0.007 -0.23201,0.007 -0.34375,0 -1.30013,-0.0776 -2.63545,-0.15433 -4,-0.1875 -1.49831,-0.0364 -3.01607,-0.0502 -4.59375,-0.0312 z"
         style="fill:url(#linearGradient5034);fill-opacity:1;fill-rule:nonzero;stroke:none"
         inkscape:connector-curvature="0" />
    </g>
  </g>
</svg>
