<svg width="169" height="162" viewBox="0 0 169 162" fill="none" xmlns="http://www.w3.org/2000/svg">
<path d="M111 38.7778L95.1 18.5111M111 38.7778H128.667C145.326 38.7778 153.647 38.7778 158.824 43.7262C164 48.6747 164 56.6293 164 72.5556V123.222C164 139.148 164 147.103 158.824 152.052C153.647 157 145.326 157 128.667 157H40.3333C23.6737 157 15.3527 157 10.1763 152.052C5 147.103 5 139.148 5 123.222V38.7778M111 38.7778H5M95.1 18.5111C89.8972 11.8822 87.3002 8.56356 83.5637 6.78178M95.1 18.5111L95.0487 18.4457C89.88 11.8604 87.2879 8.55769 83.5637 6.78178M83.5637 6.78178C79.836 5 75.4988 5 66.8333 5H40.3333C23.6737 5 15.3527 5 10.1763 9.94844C5 14.8969 5 22.8516 5 38.7778" stroke="black" stroke-width="8.54724" stroke-linecap="round"/>
<path d="M83.848 118.256C82.952 118.256 82.196 117.948 81.58 117.332C80.964 116.66 80.656 115.876 80.656 114.98V101.792H67.468C66.572 101.792 65.816 101.484 65.2 100.868C64.584 100.196 64.276 99.412 64.276 98.516C64.276 97.564 64.584 96.78 65.2 96.164C65.816 95.548 66.572 95.24 67.468 95.24H80.656V82.052C80.656 81.156 80.964 80.4 81.58 79.784C82.196 79.168 82.952 78.86 83.848 78.86C84.8 78.86 85.584 79.168 86.2 79.784C86.816 80.4 87.124 81.156 87.124 82.052V95.24H100.312C101.208 95.24 101.964 95.576 102.58 96.248C103.252 96.864 103.588 97.62 103.588 98.516C103.588 99.412 103.252 100.196 102.58 100.868C101.964 101.484 101.208 101.792 100.312 101.792H87.124V114.98C87.124 115.876 86.816 116.66 86.2 117.332C85.584 117.948 84.8 118.256 83.848 118.256Z" fill="black"/>
</svg>
