<svg width="163" height="159" viewBox="0 0 163 159" fill="none" xmlns="http://www.w3.org/2000/svg">
<path d="M80.848 98.256C79.952 98.256 79.196 97.948 78.58 97.332C77.964 96.66 77.656 95.876 77.656 94.98V81.792H64.468C63.572 81.792 62.816 81.484 62.2 80.868C61.584 80.196 61.276 79.412 61.276 78.516C61.276 77.564 61.584 76.78 62.2 76.164C62.816 75.548 63.572 75.24 64.468 75.24H77.656V62.052C77.656 61.156 77.964 60.4 78.58 59.784C79.196 59.168 79.952 58.86 80.848 58.86C81.8 58.86 82.584 59.168 83.2 59.784C83.816 60.4 84.124 61.156 84.124 62.052V75.24H97.312C98.208 75.24 98.964 75.576 99.58 76.248C100.252 76.864 100.588 77.62 100.588 78.516C100.588 79.412 100.252 80.196 99.58 80.868C98.964 81.484 98.208 81.792 97.312 81.792H84.124V94.98C84.124 95.876 83.816 96.66 83.2 97.332C82.584 97.948 81.8 98.256 80.848 98.256Z" fill="black"/>
<rect x="4" y="4" width="155" height="151" rx="16" stroke="black" stroke-width="8"/>
</svg>
