<svg width="38" height="37" viewBox="0 0 38 37" fill="none" xmlns="http://www.w3.org/2000/svg">
<path d="M19 37C29.4934 37 38 28.7173 38 18.5C38 8.28273 29.4934 0 19 0C8.50659 0 0 8.28273 0 18.5C0 28.7173 8.50659 37 19 37Z" fill="#A51810"/>
<path d="M19.0001 33.9167C27.7446 33.9167 34.8334 27.0144 34.8334 18.5C34.8334 9.98562 27.7446 3.08334 19.0001 3.08334C10.2556 3.08334 3.16675 9.98562 3.16675 18.5C3.16675 27.0144 10.2556 33.9167 19.0001 33.9167Z" stroke="#F5F5F5" stroke-width="2" stroke-linecap="round" stroke-linejoin="round"/>
<path d="M26.125 11.5625L11.875 25.4375" stroke="#F5F5F5" stroke-width="2" stroke-linecap="round" stroke-linejoin="round"/>
<path d="M11.875 11.5625L26.125 25.4375" stroke="#F5F5F5" stroke-width="2" stroke-linecap="round" stroke-linejoin="round"/>
</svg>
