<svg width="169" height="162" viewBox="0 0 169 162" fill="none" xmlns="http://www.w3.org/2000/svg">
<path d="M111 38.7778L95.1 18.5111C89.8972 11.8822 87.3002 8.56356 83.5637 6.78178C79.836 5 75.4988 5 66.8333 5H40.3333C23.6737 5 15.3527 5 10.1763 9.94844C5 14.8969 5 22.8516 5 38.7778M111 38.7778H128.667C145.326 38.7778 153.647 38.7778 158.824 43.7262C164 48.6747 164 56.6293 164 72.5556V123.222C164 139.148 164 147.103 158.824 152.052C153.647 157 145.326 157 128.667 157H40.3333C23.6737 157 15.3527 157 10.1763 152.052C5 147.103 5 139.148 5 123.222V38.7778M111 38.7778H5" stroke="black" stroke-width="8.54724" stroke-linecap="round"/>
</svg>
