<?xml version="1.0" encoding="UTF-8" standalone="no"?>
<!-- Created with Inkscape (http://www.inkscape.org/) -->
<svg
   xmlns:dc="http://purl.org/dc/elements/1.1/"
   xmlns:cc="http://web.resource.org/cc/"
   xmlns:rdf="http://www.w3.org/1999/02/22-rdf-syntax-ns#"
   xmlns:svg="http://www.w3.org/2000/svg"
   xmlns="http://www.w3.org/2000/svg"
   xmlns:xlink="http://www.w3.org/1999/xlink"
   xmlns:sodipodi="http://inkscape.sourceforge.net/DTD/sodipodi-0.dtd"
   xmlns:inkscape="http://www.inkscape.org/namespaces/inkscape"
   width="548.00000px"
   height="700.00000px"
   id="svg2"
   sodipodi:version="0.32"
   inkscape:version="0.40+cvs"
   sodipodi:docbase="D:\"
   sodipodi:docname="Chomik Roborowskiego.svg">
  <defs
     id="defs3">
    <linearGradient
       id="linearGradient2112"
       inkscape:collect="always">
      <stop
         id="stop2114"
         offset="0"
         style="stop-color:#967a4e;stop-opacity:1;" />
      <stop
         id="stop2116"
         offset="1"
         style="stop-color:#967a4e;stop-opacity:0;" />
    </linearGradient>
    <linearGradient
       spreadMethod="pad"
       gradientUnits="userSpaceOnUse"
       y2="174.46968"
       x2="382.73700"
       y1="172.59280"
       x1="1395.0950"
       gradientTransform="matrix(0.000000,0.458197,-1.262503,0.000000,449.8929,-15.69312)"
       id="linearGradient2118"
       xlink:href="#linearGradient2112"
       inkscape:collect="always" />
    <linearGradient
       y2="174.46968"
       x2="382.73700"
       y1="172.59280"
       x1="1395.0950"
       spreadMethod="pad"
       gradientTransform="matrix(0.000000,0.458197,-1.262503,0.000000,446.1549,62.77246)"
       gradientUnits="userSpaceOnUse"
       id="linearGradient2122"
       xlink:href="#linearGradient2112"
       inkscape:collect="always" />
    <linearGradient
       y2="174.46968"
       x2="382.73700"
       y1="172.59280"
       x1="1395.0950"
       spreadMethod="pad"
       gradientTransform="matrix(0.000000,0.458197,-1.262503,0.000000,453.6310,145.8537)"
       gradientUnits="userSpaceOnUse"
       id="linearGradient2126"
       xlink:href="#linearGradient2112"
       inkscape:collect="always" />
    <linearGradient
       y2="174.46968"
       x2="382.73700"
       y1="172.59280"
       x1="1395.0950"
       spreadMethod="pad"
       gradientTransform="matrix(0.000000,0.310016,-0.949311,0.000000,436.0995,-8.986016)"
       gradientUnits="userSpaceOnUse"
       id="linearGradient2890"
       xlink:href="#linearGradient2112"
       inkscape:collect="always" />
    <linearGradient
       y2="174.46968"
       x2="382.73700"
       y1="172.59280"
       x1="1395.0950"
       spreadMethod="pad"
       gradientTransform="matrix(0.000000,0.364609,-1.174418,0.000000,444.9679,20.29629)"
       gradientUnits="userSpaceOnUse"
       id="linearGradient2897"
       xlink:href="#linearGradient2112"
       inkscape:collect="always" />
    <linearGradient
       y2="174.46968"
       x2="382.73700"
       y1="172.59280"
       x1="1395.0950"
       spreadMethod="pad"
       gradientTransform="matrix(0.000000,0.555972,-1.242929,0.000000,461.7167,-30.35375)"
       gradientUnits="userSpaceOnUse"
       id="linearGradient2901"
       xlink:href="#linearGradient2112"
       inkscape:collect="always" />
  </defs>
  <sodipodi:namedview
     id="base"
     pagecolor="#ffffff"
     bordercolor="#666666"
     borderopacity="1.0"
     inkscape:pageopacity="0.0"
     inkscape:pageshadow="2"
     inkscape:zoom="0.81428571"
     inkscape:cx="274.00000"
     inkscape:cy="350.00000"
     inkscape:document-units="px"
     inkscape:current-layer="layer1"
     inkscape:window-width="1024"
     inkscape:window-height="749"
     inkscape:window-x="-4"
     inkscape:window-y="-4"
     showguides="true"
     inkscape:guide-bbox="true" />
  <metadata
     id="metadata4">
    <rdf:RDF
       id="RDF5">
      <cc:Work
         rdf:about=""
         id="Work6">
        <dc:format
           id="format7">image/svg+xml</dc:format>
        <dc:type
           id="type9"
           rdf:resource="http://purl.org/dc/dcmitype/StillImage" />
        <dc:title
           id="title2965">Chomik Campbella</dc:title>
        <dc:creator
           id="creator2967">
          <cc:Agent
             id="Agent2969">
            <dc:title
               id="title2971">Shazz</dc:title>
          </cc:Agent>
        </dc:creator>
        <cc:license
           rdf:resource="http://creativecommons.org/licenses/GPL/2.0/"
           id="license2973" />
      </cc:Work>
      <cc:License
         id="License2975"
         rdf:about="http://creativecommons.org/licenses/GPL/2.0/">
        <cc:permits
           id="permits2977"
           rdf:resource="http://web.resource.org/cc/Reproduction" />
        <cc:permits
           id="permits2979"
           rdf:resource="http://web.resource.org/cc/Distribution" />
        <cc:requires
           id="requires2981"
           rdf:resource="http://web.resource.org/cc/Notice" />
        <cc:permits
           id="permits2983"
           rdf:resource="http://web.resource.org/cc/DerivativeWorks" />
        <cc:requires
           id="requires2985"
           rdf:resource="http://web.resource.org/cc/ShareAlike" />
        <cc:requires
           id="requires2987"
           rdf:resource="http://web.resource.org/cc/SourceCode" />
      </cc:License>
    </rdf:RDF>
  </metadata>
  <g
     inkscape:label="Layer 1"
     inkscape:groupmode="layer"
     id="layer1">
    <g
       style="fill:#f0c47d;fill-opacity:1.0000000"
       id="g2906">
      <path
         style="fill:#f0c47d;fill-opacity:1.0000000;fill-rule:evenodd;stroke:none;stroke-width:0.10000000;stroke-miterlimit:4.0000000;stroke-dashoffset:0.00000000;stroke-opacity:1.0000000"
         d="M 447.12923,459.00925 C 448.13578,532.22877 439.68080,598.07494 427.39133,593.17285 C 416.63806,588.88353 407.03651,539.80748 404.12872,478.55336 C 404.12872,478.55336 447.08830,456.03284 447.12923,459.00925 z "
         id="path4452"
         inkscape:export-filename="D:\path3628.png"
         inkscape:export-xdpi="90.000000"
         inkscape:export-ydpi="90.000000"
         sodipodi:nodetypes="cccc" />
      <path
         inkscape:export-ydpi="90.000000"
         inkscape:export-xdpi="90.000000"
         inkscape:export-filename="D:\path3628.png"
         sodipodi:nodetypes="ccccccccccccccccccccc"
         id="path4375"
         d="M 434.89157,583.39626 C 436.64753,583.60507 440.83225,591.03507 444.59994,600.76930 C 448.61882,611.15249 450.64868,620.25158 449.13424,621.07842 C 447.77749,621.81917 444.03120,615.64643 440.37621,606.89229 C 442.38045,616.20577 442.91247,623.61409 441.49426,624.10303 C 439.89355,624.65491 432.71621,600.74200 432.32007,598.65944 C 432.49945,600.35177 432.81391,624.69910 431.15233,624.85550 C 429.49074,625.01191 426.66163,602.59003 426.61803,601.64717 C 426.47654,602.70934 421.62273,624.93135 419.98429,624.56779 C 418.34585,624.20425 420.86421,599.83092 421.21414,598.08403 C 421.03668,598.53973 413.83392,612.33940 412.33810,611.46608 C 410.84227,610.59276 412.15525,603.79403 415.26365,596.28403 C 418.37205,588.77403 422.10968,583.38605 423.60551,584.25937 C 424.10954,584.55365 424.27134,585.56260 424.17696,587.00365 C 424.99848,584.90099 425.77195,583.73165 426.38821,583.86839 C 426.78746,583.95698 427.07679,584.60244 427.27022,585.66102 C 427.57346,584.39741 427.94833,583.62327 428.40069,583.58068 C 429.30409,583.49564 430.28696,586.21249 431.12748,590.48564 C 430.82525,586.94260 431.00914,584.60619 431.77968,584.34053 C 432.38583,584.13154 433.25896,585.22454 434.25801,587.24710 C 433.96018,585.14338 434.77451,583.38234 434.89157,583.39626 z "
         style="fill:#f0c47d;fill-opacity:1.0000000;fill-rule:evenodd;stroke:none;stroke-width:0.10000000;stroke-miterlimit:4.0000000;stroke-dashoffset:0.00000000;stroke-opacity:1.0000000" />
    </g>
    <path
       inkscape:export-ydpi="90.000000"
       inkscape:export-xdpi="90.000000"
       inkscape:export-filename="D:\path3628.png"
       transform="matrix(-0.179225,0.102070,8.594039e-2,0.212859,346.5392,522.5801)"
       d="M -287.78474 586.48370 A 4.7758708 27.422743 0 1 1  -297.33648,586.48370 A 4.7758708 27.422743 0 1 1  -287.78474 586.48370 z"
       sodipodi:ry="27.422743"
       sodipodi:rx="4.7758708"
       sodipodi:cy="586.48370"
       sodipodi:cx="-292.56061"
       id="path4377"
       style="fill:#bebebe;fill-opacity:1.0000000;fill-rule:evenodd;stroke:none;stroke-width:0.10000000;stroke-miterlimit:4.0000000;stroke-dashoffset:0.00000000;stroke-opacity:1.0000000"
       sodipodi:type="arc" />
    <path
       inkscape:export-ydpi="90.000000"
       inkscape:export-xdpi="90.000000"
       inkscape:export-filename="D:\path3628.png"
       transform="matrix(-0.194514,4.018206e-2,4.062198e-2,0.204889,360.1012,511.9856)"
       d="M -287.78474 586.48370 A 4.7758708 27.422743 0 1 1  -297.33648,586.48370 A 4.7758708 27.422743 0 1 1  -287.78474 586.48370 z"
       sodipodi:ry="27.422743"
       sodipodi:rx="4.7758708"
       sodipodi:cy="586.48370"
       sodipodi:cx="-292.56061"
       id="path4379"
       style="fill:#bebebe;fill-opacity:1.0000000;fill-rule:evenodd;stroke:none;stroke-width:0.10000000;stroke-miterlimit:4.0000000;stroke-dashoffset:0.00000000;stroke-opacity:1.0000000"
       sodipodi:type="arc" />
    <path
       inkscape:export-ydpi="90.000000"
       inkscape:export-xdpi="90.000000"
       inkscape:export-filename="D:\path3628.png"
       transform="matrix(-0.198326,1.398477e-2,1.318534e-2,0.210351,365.1556,502.9731)"
       d="M -287.78474 586.48370 A 4.7758708 27.422743 0 1 1  -297.33648,586.48370 A 4.7758708 27.422743 0 1 1  -287.78474 586.48370 z"
       sodipodi:ry="27.422743"
       sodipodi:rx="4.7758708"
       sodipodi:cy="586.48370"
       sodipodi:cx="-292.56061"
       id="path4381"
       style="fill:#bebebe;fill-opacity:1.0000000;fill-rule:evenodd;stroke:none;stroke-width:0.10000000;stroke-miterlimit:4.0000000;stroke-dashoffset:0.00000000;stroke-opacity:1.0000000"
       sodipodi:type="arc" />
    <path
       inkscape:export-ydpi="90.000000"
       inkscape:export-xdpi="90.000000"
       inkscape:export-filename="D:\path3628.png"
       transform="matrix(-0.201147,1.266229e-2,-2.924412e-2,0.190458,378.7421,513.8161)"
       d="M -287.78474 586.48370 A 4.7758708 27.422743 0 1 1  -297.33648,586.48370 A 4.7758708 27.422743 0 1 1  -287.78474 586.48370 z"
       sodipodi:ry="27.422743"
       sodipodi:rx="4.7758708"
       sodipodi:cy="586.48370"
       sodipodi:cx="-292.56061"
       id="path4383"
       style="fill:#bebebe;fill-opacity:1.0000000;fill-rule:evenodd;stroke:none;stroke-width:0.10000000;stroke-miterlimit:4.0000000;stroke-dashoffset:0.00000000;stroke-opacity:1.0000000"
       sodipodi:type="arc" />
    <path
       inkscape:export-ydpi="90.000000"
       inkscape:export-xdpi="90.000000"
       inkscape:export-filename="D:\path3628.png"
       transform="matrix(-0.200257,1.266229e-2,-1.584523e-2,0.190458,363.2440,502.5783)"
       d="M -287.78474 586.48370 A 4.7758708 27.422743 0 1 1  -297.33648,586.48370 A 4.7758708 27.422743 0 1 1  -287.78474 586.48370 z"
       sodipodi:ry="27.422743"
       sodipodi:rx="4.7758708"
       sodipodi:cy="586.48370"
       sodipodi:cx="-292.56061"
       id="path4385"
       style="fill:#bebebe;fill-opacity:1.0000000;fill-rule:evenodd;stroke:none;stroke-width:0.10000000;stroke-miterlimit:4.0000000;stroke-dashoffset:0.00000000;stroke-opacity:1.0000000"
       sodipodi:type="arc" />
    <g
       style="fill:#f0c47d;fill-opacity:1.0000000"
       id="g2902">
      <path
         style="fill:#f0c47d;fill-opacity:1.0000000;fill-rule:evenodd;stroke:none;stroke-width:0.10000000;stroke-miterlimit:4.0000000;stroke-dashoffset:0.00000000;stroke-opacity:1.0000000"
         d="M 110.60436,457.31589 C 109.59780,530.53540 118.05279,596.38157 130.34225,591.47949 C 141.09552,587.19017 150.69707,538.11411 153.60486,476.85999 C 153.60486,476.85999 110.64529,454.33947 110.60436,457.31589 z "
         id="path3630"
         inkscape:export-filename="D:\path3628.png"
         inkscape:export-xdpi="90.000000"
         inkscape:export-ydpi="90.000000"
         sodipodi:nodetypes="cccc" />
      <path
         inkscape:export-ydpi="90.000000"
         inkscape:export-xdpi="90.000000"
         inkscape:export-filename="D:\path3628.png"
         sodipodi:nodetypes="ccccccccccccccccccccc"
         id="path1318"
         d="M 123.49009,580.39205 C 121.73413,580.60086 117.54941,588.03086 113.78172,597.76510 C 109.76284,608.14828 107.73298,617.24739 109.24742,618.07422 C 110.60417,618.81498 114.35046,612.64223 118.00544,603.88809 C 116.00121,613.20156 115.46919,620.60988 116.88740,621.09883 C 118.48811,621.65070 125.66545,597.73779 126.06159,595.65524 C 125.88221,597.34757 125.56775,621.69489 127.22933,621.85130 C 128.89092,622.00770 131.72003,599.58583 131.76363,598.64297 C 131.90511,599.70513 136.75893,621.92714 138.39737,621.56358 C 140.03581,621.20004 137.51745,596.82672 137.16752,595.07983 C 137.34498,595.53553 144.54773,609.33520 146.04356,608.46187 C 147.53939,607.58855 146.22641,600.78983 143.11801,593.27983 C 140.00961,585.76982 136.27197,580.38185 134.77614,581.25516 C 134.27212,581.54944 134.11032,582.55840 134.20470,583.99945 C 133.38318,581.89678 132.60971,580.72744 131.99344,580.86419 C 131.59419,580.95277 131.30487,581.59824 131.11144,582.65681 C 130.80820,581.39320 130.43333,580.61906 129.98097,580.57647 C 129.07757,580.49144 128.09469,583.20828 127.25417,587.48143 C 127.55641,583.93840 127.37252,581.60198 126.60198,581.33632 C 125.99583,581.12734 125.12270,582.22033 124.12364,584.24289 C 124.42148,582.13917 123.60715,580.37814 123.49009,580.39205 z "
         style="fill:#f0c47d;fill-opacity:1.0000000;fill-rule:evenodd;stroke:none;stroke-width:0.10000000;stroke-miterlimit:4.0000000;stroke-dashoffset:0.00000000;stroke-opacity:1.0000000" />
    </g>
    <path
       inkscape:export-ydpi="90.000000"
       inkscape:export-xdpi="90.000000"
       inkscape:export-filename="D:\path3628.png"
       transform="matrix(0.179225,0.102070,-8.594039e-2,0.212859,211.8424,519.5759)"
       d="M -287.78474 586.48370 A 4.7758708 27.422743 0 1 1  -297.33648,586.48370 A 4.7758708 27.422743 0 1 1  -287.78474 586.48370 z"
       sodipodi:ry="27.422743"
       sodipodi:rx="4.7758708"
       sodipodi:cy="586.48370"
       sodipodi:cx="-292.56061"
       id="path3607"
       style="fill:#bebebe;fill-opacity:1.0000000;fill-rule:evenodd;stroke:none;stroke-width:0.10000000;stroke-miterlimit:4.0000000;stroke-dashoffset:0.00000000;stroke-opacity:1.0000000"
       sodipodi:type="arc" />
    <path
       inkscape:export-ydpi="90.000000"
       inkscape:export-xdpi="90.000000"
       inkscape:export-filename="D:\path3628.png"
       transform="matrix(0.194514,4.018206e-2,-4.062198e-2,0.204889,198.2804,508.9813)"
       d="M -287.78474 586.48370 A 4.7758708 27.422743 0 1 1  -297.33648,586.48370 A 4.7758708 27.422743 0 1 1  -287.78474 586.48370 z"
       sodipodi:ry="27.422743"
       sodipodi:rx="4.7758708"
       sodipodi:cy="586.48370"
       sodipodi:cx="-292.56061"
       id="path4367"
       style="fill:#bebebe;fill-opacity:1.0000000;fill-rule:evenodd;stroke:none;stroke-width:0.10000000;stroke-miterlimit:4.0000000;stroke-dashoffset:0.00000000;stroke-opacity:1.0000000"
       sodipodi:type="arc" />
    <path
       inkscape:export-ydpi="90.000000"
       inkscape:export-xdpi="90.000000"
       inkscape:export-filename="D:\path3628.png"
       transform="matrix(0.198326,1.398477e-2,-1.318534e-2,0.210351,193.2260,499.9689)"
       d="M -287.78474 586.48370 A 4.7758708 27.422743 0 1 1  -297.33648,586.48370 A 4.7758708 27.422743 0 1 1  -287.78474 586.48370 z"
       sodipodi:ry="27.422743"
       sodipodi:rx="4.7758708"
       sodipodi:cy="586.48370"
       sodipodi:cx="-292.56061"
       id="path4369"
       style="fill:#bebebe;fill-opacity:1.0000000;fill-rule:evenodd;stroke:none;stroke-width:0.10000000;stroke-miterlimit:4.0000000;stroke-dashoffset:0.00000000;stroke-opacity:1.0000000"
       sodipodi:type="arc" />
    <path
       inkscape:export-ydpi="90.000000"
       inkscape:export-xdpi="90.000000"
       inkscape:export-filename="D:\path3628.png"
       transform="matrix(0.201147,1.266229e-2,2.924412e-2,0.190458,179.6395,510.8118)"
       d="M -287.78474 586.48370 A 4.7758708 27.422743 0 1 1  -297.33648,586.48370 A 4.7758708 27.422743 0 1 1  -287.78474 586.48370 z"
       sodipodi:ry="27.422743"
       sodipodi:rx="4.7758708"
       sodipodi:cy="586.48370"
       sodipodi:cx="-292.56061"
       id="path4371"
       style="fill:#bebebe;fill-opacity:1.0000000;fill-rule:evenodd;stroke:none;stroke-width:0.10000000;stroke-miterlimit:4.0000000;stroke-dashoffset:0.00000000;stroke-opacity:1.0000000"
       sodipodi:type="arc" />
    <path
       inkscape:export-ydpi="90.000000"
       inkscape:export-xdpi="90.000000"
       inkscape:export-filename="D:\path3628.png"
       transform="matrix(0.200257,1.266229e-2,1.584523e-2,0.190458,195.1376,499.5741)"
       d="M -287.78474 586.48370 A 4.7758708 27.422743 0 1 1  -297.33648,586.48370 A 4.7758708 27.422743 0 1 1  -287.78474 586.48370 z"
       sodipodi:ry="27.422743"
       sodipodi:rx="4.7758708"
       sodipodi:cy="586.48370"
       sodipodi:cx="-292.56061"
       id="path4373"
       style="fill:#bebebe;fill-opacity:1.0000000;fill-rule:evenodd;stroke:none;stroke-width:0.10000000;stroke-miterlimit:4.0000000;stroke-dashoffset:0.00000000;stroke-opacity:1.0000000"
       sodipodi:type="arc" />
    <g
       style="fill:#f0c47d;fill-opacity:1.0000000"
       transform="matrix(1.000000,0.000000,0.000000,0.996960,0.000000,-66.18008)"
       id="g1372">
      <path
         id="path4468"
         d="M 503.26639,333.17842 C 510.46904,373.74428 510.50674,404.22760 500.43579,401.55451 C 492.82727,399.53502 482.05321,381.68647 471.45319,355.85449 L 503.26639,333.17842 z "
         style="fill:#f0c47d;fill-opacity:1.0000000;fill-rule:evenodd;stroke:none;stroke-width:0.10000000;stroke-miterlimit:4.0000000;stroke-dashoffset:0.00000000;stroke-opacity:1.0000000" />
      <path
         sodipodi:nodetypes="ccccccccccccccccccccc"
         id="path4472"
         d="M 504.19528,392.96650 C 505.82177,393.20389 511.29271,401.65023 516.91882,412.71600 C 522.92002,424.51949 526.83784,434.86325 525.66669,435.80320 C 524.61747,436.64528 519.82988,429.62816 514.53054,419.67655 C 518.47466,430.26401 520.65710,438.68570 519.49471,439.24153 C 518.18276,439.86889 506.22998,412.68497 505.39481,410.31754 C 505.94537,412.24136 511.82886,439.91913 510.37122,440.09693 C 508.91355,440.27473 501.21250,414.78579 500.95642,413.71395 C 501.07357,414.92141 501.82229,440.18314 500.26582,439.76986 C 498.70937,439.35660 495.36637,411.64927 495.27908,409.66342 C 495.22438,410.18145 491.92413,425.86877 490.37859,424.87599 C 488.83305,423.88319 488.44935,416.15448 489.51597,407.61719 C 490.58260,399.07991 492.70300,392.95491 494.24853,393.94769 C 494.76931,394.28222 495.14685,395.42919 495.39351,397.06735 C 495.64830,394.67707 496.07460,393.34778 496.66002,393.50322 C 497.03930,393.60393 497.44786,394.33769 497.86525,395.54107 C 497.84717,394.10461 498.00606,393.22458 498.40290,393.17616 C 499.19543,393.07950 500.70393,396.16797 502.44249,401.02564 C 501.35576,396.99796 500.98360,394.34194 501.61514,394.03994 C 502.11195,393.80238 503.14826,395.04488 504.51160,397.34410 C 503.75993,394.95262 504.08685,392.95069 504.19528,392.96650 z "
         style="fill:#f0c47d;fill-opacity:1.0000000;fill-rule:evenodd;stroke:none;stroke-width:0.10000000;stroke-miterlimit:4.0000000;stroke-dashoffset:0.00000000;stroke-opacity:1.0000000" />
      <path
         transform="matrix(-0.137629,0.116032,0.126220,0.241976,410.7832,323.8314)"
         d="M -287.78474 586.48370 A 4.7758708 27.422743 0 1 1  -297.33648,586.48370 A 4.7758708 27.422743 0 1 1  -287.78474 586.48370 z"
         sodipodi:ry="27.422743"
         sodipodi:rx="4.7758708"
         sodipodi:cy="586.48370"
         sodipodi:cx="-292.56061"
         id="path4474"
         style="fill:#f0c47d;fill-opacity:1.0000000;fill-rule:evenodd;stroke:none;stroke-width:0.10000000;stroke-miterlimit:4.0000000;stroke-dashoffset:0.00000000;stroke-opacity:1.0000000"
         sodipodi:type="arc" />
      <path
         transform="matrix(-0.165609,4.567853e-2,8.364856e-2,0.232916,420.5372,311.7877)"
         d="M -287.78474 586.48370 A 4.7758708 27.422743 0 1 1  -297.33648,586.48370 A 4.7758708 27.422743 0 1 1  -287.78474 586.48370 z"
         sodipodi:ry="27.422743"
         sodipodi:rx="4.7758708"
         sodipodi:cy="586.48370"
         sodipodi:cx="-292.56061"
         id="path4476"
         style="fill:#f0c47d;fill-opacity:1.0000000;fill-rule:evenodd;stroke:none;stroke-width:0.10000000;stroke-miterlimit:4.0000000;stroke-dashoffset:0.00000000;stroke-opacity:1.0000000"
         sodipodi:type="arc" />
      <path
         transform="matrix(-0.175062,1.589773e-2,6.024115e-2,0.239123,423.0076,301.5424)"
         d="M -287.78474 586.48370 A 4.7758708 27.422743 0 1 1  -297.33648,586.48370 A 4.7758708 27.422743 0 1 1  -287.78474 586.48370 z"
         sodipodi:ry="27.422743"
         sodipodi:rx="4.7758708"
         sodipodi:cy="586.48370"
         sodipodi:cx="-292.56061"
         id="path4478"
         style="fill:#f0c47d;fill-opacity:1.0000000;fill-rule:evenodd;stroke:none;stroke-width:0.10000000;stroke-miterlimit:4.0000000;stroke-dashoffset:0.00000000;stroke-opacity:1.0000000"
         sodipodi:type="arc" />
      <path
         transform="matrix(-0.177903,1.439435e-2,1.752462e-2,0.216511,437.7150,313.8685)"
         d="M -287.78474 586.48370 A 4.7758708 27.422743 0 1 1  -297.33648,586.48370 A 4.7758708 27.422743 0 1 1  -287.78474 586.48370 z"
         sodipodi:ry="27.422743"
         sodipodi:rx="4.7758708"
         sodipodi:cy="586.48370"
         sodipodi:cx="-292.56061"
         id="path4480"
         style="fill:#f0c47d;fill-opacity:1.0000000;fill-rule:evenodd;stroke:none;stroke-width:0.10000000;stroke-miterlimit:4.0000000;stroke-dashoffset:0.00000000;stroke-opacity:1.0000000"
         sodipodi:type="arc" />
      <path
         transform="matrix(-0.177103,1.439435e-2,2.956919e-2,0.216511,421.1984,301.0935)"
         d="M -287.78474 586.48370 A 4.7758708 27.422743 0 1 1  -297.33648,586.48370 A 4.7758708 27.422743 0 1 1  -287.78474 586.48370 z"
         sodipodi:ry="27.422743"
         sodipodi:rx="4.7758708"
         sodipodi:cy="586.48370"
         sodipodi:cx="-292.56061"
         id="path4482"
         style="fill:#f0c47d;fill-opacity:1.0000000;fill-rule:evenodd;stroke:none;stroke-width:0.10000000;stroke-miterlimit:4.0000000;stroke-dashoffset:0.00000000;stroke-opacity:1.0000000"
         sodipodi:type="arc" />
    </g>
    <g
       style="fill:#f0c47d;fill-opacity:1.0000000"
       transform="matrix(1.000000,0.000000,0.000000,0.996960,0.000000,-66.18008)"
       id="g1363">
      <path
         id="path4422"
         d="M 53.928209,337.77763 C 46.725562,378.34349 46.687863,408.82681 56.758813,406.15372 C 64.367335,404.13423 75.141388,386.28568 85.741407,360.45370 L 53.928209,337.77763 z "
         style="fill:#f0c47d;fill-opacity:1.0000000;fill-rule:evenodd;stroke:none;stroke-width:0.10000000;stroke-miterlimit:4.0000000;stroke-dashoffset:0.00000000;stroke-opacity:1.0000000" />
      <path
         sodipodi:nodetypes="ccccccccccccccccccccc"
         id="path4424"
         d="M 52.999324,397.56571 C 51.372826,397.80310 45.901890,406.24944 40.275782,417.31521 C 34.274581,429.11870 30.356756,439.46246 31.527909,440.40241 C 32.577129,441.24449 37.364720,434.22737 42.664064,424.27576 C 38.719938,434.86322 36.537498,443.28491 37.699891,443.84074 C 39.011840,444.46810 50.964619,417.28418 51.799785,414.91675 C 51.249225,416.84057 45.365738,444.51834 46.823382,444.69614 C 48.281054,444.87394 55.982102,419.38500 56.238182,418.31316 C 56.121027,419.52062 55.372315,444.78235 56.928779,444.36907 C 58.485232,443.95581 61.828232,416.24848 61.915522,414.26263 C 61.970221,414.78066 65.270474,430.46798 66.816012,429.47520 C 68.361551,428.48240 68.745245,420.75369 67.678629,412.21640 C 66.612001,403.67912 64.491597,397.55412 62.946070,398.54690 C 62.425294,398.88143 62.047755,400.02840 61.801089,401.66656 C 61.546305,399.27628 61.120004,397.94699 60.534578,398.10243 C 60.155298,398.20314 59.746741,398.93690 59.329349,400.14028 C 59.347435,398.70382 59.188537,397.82379 58.791696,397.77537 C 57.999173,397.67871 56.490673,400.76718 54.752114,405.62485 C 55.838839,401.59717 56.211000,398.94115 55.579462,398.63915 C 55.082650,398.40159 54.046340,399.64409 52.682998,401.94331 C 53.434671,399.55183 53.107747,397.54990 52.999324,397.56571 z "
         style="fill:#f0c47d;fill-opacity:1.0000000;fill-rule:evenodd;stroke:none;stroke-width:0.10000000;stroke-miterlimit:4.0000000;stroke-dashoffset:0.00000000;stroke-opacity:1.0000000" />
      <path
         transform="matrix(0.137629,0.116032,-0.126220,0.241976,146.4114,328.4306)"
         d="M -287.78474 586.48370 A 4.7758708 27.422743 0 1 1  -297.33648,586.48370 A 4.7758708 27.422743 0 1 1  -287.78474 586.48370 z"
         sodipodi:ry="27.422743"
         sodipodi:rx="4.7758708"
         sodipodi:cy="586.48370"
         sodipodi:cx="-292.56061"
         id="path4426"
         style="fill:#f0c47d;fill-opacity:1.0000000;fill-rule:evenodd;stroke:none;stroke-width:0.10000000;stroke-miterlimit:4.0000000;stroke-dashoffset:0.00000000;stroke-opacity:1.0000000"
         sodipodi:type="arc" />
      <path
         transform="matrix(0.165609,4.567853e-2,-8.364856e-2,0.232916,136.6574,316.3869)"
         d="M -287.78474 586.48370 A 4.7758708 27.422743 0 1 1  -297.33648,586.48370 A 4.7758708 27.422743 0 1 1  -287.78474 586.48370 z"
         sodipodi:ry="27.422743"
         sodipodi:rx="4.7758708"
         sodipodi:cy="586.48370"
         sodipodi:cx="-292.56061"
         id="path4428"
         style="fill:#f0c47d;fill-opacity:1.0000000;fill-rule:evenodd;stroke:none;stroke-width:0.10000000;stroke-miterlimit:4.0000000;stroke-dashoffset:0.00000000;stroke-opacity:1.0000000"
         sodipodi:type="arc" />
      <path
         transform="matrix(0.175062,1.589773e-2,-6.024115e-2,0.239123,134.1870,306.1416)"
         d="M -287.78474 586.48370 A 4.7758708 27.422743 0 1 1  -297.33648,586.48370 A 4.7758708 27.422743 0 1 1  -287.78474 586.48370 z"
         sodipodi:ry="27.422743"
         sodipodi:rx="4.7758708"
         sodipodi:cy="586.48370"
         sodipodi:cx="-292.56061"
         id="path4430"
         style="fill:#f0c47d;fill-opacity:1.0000000;fill-rule:evenodd;stroke:none;stroke-width:0.10000000;stroke-miterlimit:4.0000000;stroke-dashoffset:0.00000000;stroke-opacity:1.0000000"
         sodipodi:type="arc" />
      <path
         transform="matrix(0.177903,1.439435e-2,-1.752462e-2,0.216511,119.4796,318.4677)"
         d="M -287.78474 586.48370 A 4.7758708 27.422743 0 1 1  -297.33648,586.48370 A 4.7758708 27.422743 0 1 1  -287.78474 586.48370 z"
         sodipodi:ry="27.422743"
         sodipodi:rx="4.7758708"
         sodipodi:cy="586.48370"
         sodipodi:cx="-292.56061"
         id="path4432"
         style="fill:#f0c47d;fill-opacity:1.0000000;fill-rule:evenodd;stroke:none;stroke-width:0.10000000;stroke-miterlimit:4.0000000;stroke-dashoffset:0.00000000;stroke-opacity:1.0000000"
         sodipodi:type="arc" />
      <path
         transform="matrix(0.177103,1.439435e-2,-2.956919e-2,0.216511,135.9962,305.6927)"
         d="M -287.78474 586.48370 A 4.7758708 27.422743 0 1 1  -297.33648,586.48370 A 4.7758708 27.422743 0 1 1  -287.78474 586.48370 z"
         sodipodi:ry="27.422743"
         sodipodi:rx="4.7758708"
         sodipodi:cy="586.48370"
         sodipodi:cx="-292.56061"
         id="path4434"
         style="fill:#f0c47d;fill-opacity:1.0000000;fill-rule:evenodd;stroke:none;stroke-width:0.10000000;stroke-miterlimit:4.0000000;stroke-dashoffset:0.00000000;stroke-opacity:1.0000000"
         sodipodi:type="arc" />
    </g>
    <path
       style="fill:#f0c47d;fill-opacity:1.0000000;fill-rule:evenodd;stroke:none;stroke-width:0.20000000;stroke-miterlimit:4.0000000;stroke-dashoffset:0.00000000;stroke-opacity:1.0000000"
       d="M 278.62333,10.336126 C 267.42388,10.336126 257.30281,14.488566 249.29281,21.117526 C 194.89598,30.183766 133.15423,65.066716 98.537157,114.44814 C 63.920089,163.82955 33.951551,255.29752 56.427699,298.75969 C 79.316982,343.02074 83.895986,418.88717 121.53025,496.84079 C 149.44166,554.65500 217.29631,578.93534 278.62333,578.93534 C 339.95035,578.93534 406.87618,554.23441 435.71642,496.84080 C 464.31058,439.93690 476.64913,339.38821 500.81896,298.75969 C 524.53967,258.88612 489.17016,162.83807 454.55940,113.45691 C 419.94864,64.075736 362.37590,30.188476 307.98322,21.117526 C 299.97198,14.484326 289.82677,10.336126 278.62333,10.336126 z "
       id="path2108"
       sodipodi:nodetypes="ccszscszscc"
       inkscape:export-filename="D:\path3628.png"
       inkscape:export-xdpi="90.000000"
       inkscape:export-ydpi="90.000000" />
    <path
       style="fill:#e7e7e7;fill-opacity:1.0000000;fill-rule:evenodd;stroke:#000000;stroke-width:0.26720500;stroke-miterlimit:4.0000000;stroke-dashoffset:0.00000000;stroke-opacity:1.0000000"
       d="M 438.19472,487.84983 L 123.37154,488.00733 C 133.38750,529.58041 210.43295,613.38467 216.92624,645.82454 C 225.34889,687.90343 263.21247,688.95481 280.84972,689.06606 C 299.75207,689.41949 336.23616,687.65212 344.64004,645.66706 C 351.13331,613.22719 428.17876,529.42291 438.19472,487.84983 z "
       id="path2055"
       sodipodi:nodetypes="cccccc"
       inkscape:export-filename="D:\path3628.png"
       inkscape:export-xdpi="90.000000"
       inkscape:export-ydpi="90.000000" />
    <path
       style="fill:#ff8084;fill-opacity:1.0000000;fill-rule:evenodd;stroke:none;stroke-width:11.300000;stroke-miterlimit:4.0000000;stroke-dashoffset:0.00000000;stroke-opacity:1.0000000"
       d="M 274.43311,688.92234 C 274.44136,688.94741 257.68706,675.65637 257.68706,675.36422 C 257.68704,666.54128 267.52202,666.33159 279.81754,666.33157 C 292.11305,666.33157 302.25502,666.54128 302.25503,675.36422 L 285.50986,689.13283 C 283.71601,690.92726 276.13339,690.59638 274.43311,688.92234 z "
       id="path5114"
       sodipodi:nodetypes="cccccc"
       inkscape:export-filename="D:\path3628.png"
       inkscape:export-xdpi="90.000000"
       inkscape:export-ydpi="90.000000" />
    <path
       style="fill:#f0c47d;fill-opacity:1.0000000;fill-rule:evenodd;stroke:#000000;stroke-width:0.093860075;stroke-miterlimit:4.0000000;stroke-dashoffset:0.00000000;stroke-opacity:1.0000000"
       d="M 162.56325,520.63255 C 184.04180,568.28684 208.82264,603.88483 260.54721,619.42040 L 260.61953,668.23308 L 280.12452,678.47632 L 299.15683,668.23308 L 298.71430,619.45814 C 351.81070,603.98388 373.01099,568.62821 398.06934,521.41519 C 507.86032,496.05355 404.21080,339.91751 280.15578,340.01248 C 156.10074,340.10744 55.047354,495.82519 162.56325,520.63255 z "
       id="path3589"
       sodipodi:nodetypes="ccccccczc"
       inkscape:export-filename="D:\path3628.png"
       inkscape:export-xdpi="90.000000"
       inkscape:export-ydpi="90.000000" />
    <path
       sodipodi:type="arc"
       style="fill:#000000;fill-opacity:1.0000000;fill-rule:evenodd;stroke:none;stroke-width:11.300000;stroke-miterlimit:4.0000000;stroke-dashoffset:0.00000000;stroke-opacity:1.0000000"
       id="path7412"
       sodipodi:cx="-587.50000"
       sodipodi:cy="293.36218"
       sodipodi:rx="14.500000"
       sodipodi:ry="14.000000"
       d="M -573.00000 293.36218 A 14.500000 14.000000 0 1 1  -602.00000,293.36218 A 14.500000 14.000000 0 1 1  -573.00000 293.36218 z"
       transform="matrix(0.929455,-1.145552,0.902820,0.728065,638.8545,-356.3566)"
       inkscape:export-filename="D:\path3628.png"
       inkscape:export-xdpi="90.000000"
       inkscape:export-ydpi="90.000000" />
    <path
       sodipodi:type="arc"
       style="fill:#000000;fill-opacity:1.0000000;fill-rule:evenodd;stroke:none;stroke-width:11.300000;stroke-miterlimit:4.0000000;stroke-dashoffset:0.00000000;stroke-opacity:1.0000000"
       id="path7414"
       sodipodi:cx="-587.50000"
       sodipodi:cy="293.36218"
       sodipodi:rx="14.500000"
       sodipodi:ry="14.000000"
       d="M -573.00000 293.36218 A 14.500000 14.000000 0 1 1  -602.00000,293.36218 A 14.500000 14.000000 0 1 1  -573.00000 293.36218 z"
       transform="matrix(-0.929455,-1.145552,-0.902820,0.728065,-79.46716,-356.6906)"
       inkscape:export-filename="D:\path3628.png"
       inkscape:export-xdpi="90.000000"
       inkscape:export-ydpi="90.000000" />
    <path
       sodipodi:type="arc"
       style="fill:#ffffff;fill-opacity:0.50196081;fill-rule:evenodd;stroke:none;stroke-width:11.300000;stroke-miterlimit:4.0000000;stroke-dashoffset:0.00000000;stroke-opacity:1.0000000"
       id="path9707"
       sodipodi:cx="-587.50000"
       sodipodi:cy="293.36218"
       sodipodi:rx="14.500000"
       sodipodi:ry="14.000000"
       d="M -573.00000 293.36218 A 14.500000 14.000000 0 1 1  -602.00000,293.36218 A 14.500000 14.000000 0 1 1  -573.00000 293.36218 z"
       transform="matrix(-0.349204,-0.430394,-0.339198,0.273540,98.60007,190.7537)"
       inkscape:export-filename="D:\path3628.png"
       inkscape:export-xdpi="90.000000"
       inkscape:export-ydpi="90.000000" />
    <path
       sodipodi:type="arc"
       style="fill:#ffffff;fill-opacity:0.50196081;fill-rule:evenodd;stroke:none;stroke-width:11.300000;stroke-miterlimit:4.0000000;stroke-dashoffset:0.00000000;stroke-opacity:1.0000000"
       id="path10467"
       sodipodi:cx="-587.50000"
       sodipodi:cy="293.36218"
       sodipodi:rx="14.500000"
       sodipodi:ry="14.000000"
       d="M -573.00000 293.36218 A 14.500000 14.000000 0 1 1  -602.00000,293.36218 A 14.500000 14.000000 0 1 1  -573.00000 293.36218 z"
       transform="matrix(0.349204,-0.430394,0.339198,0.273540,461.1880,193.4520)"
       inkscape:export-filename="D:\path3628.png"
       inkscape:export-xdpi="90.000000"
       inkscape:export-ydpi="90.000000" />
    <path
       style="fill:#000000;fill-opacity:0.50196081;fill-rule:evenodd;stroke:none;stroke-width:0.20000000;stroke-miterlimit:4.0000000;stroke-dashoffset:0.00000000;stroke-opacity:1.0000000"
       d="M 401.20834,352.89874 C 387.22582,345.47189 369.71142,347.36267 362.11515,357.11740 L 349.80758,375.74812 L 364.34599,376.90871 L 357.35886,383.05517 L 382.15587,381.53204 L 368.71099,387.20576 L 373.41899,389.82965 L 363.36445,390.52699 L 368.47206,393.11669 L 356.98224,397.33361 L 369.08415,403.29949 L 361.54155,406.90214 L 381.24927,412.87236 L 377.22224,416.03190 L 380.77381,422.63154 L 384.47048,437.37922 L 397.86437,440.05745 L 388.75579,434.07961 L 390.76598,430.58815 L 385.69644,426.41679 L 388.31320,424.54134 L 382.98694,421.89711 C 385.37736,418.86373 412.42060,384.48324 412.77645,384.02626 C 420.37274,374.27153 415.19085,360.32558 401.20834,352.89874 z "
       id="path15017" />
    <path
       style="fill:#000000;fill-opacity:1.0000000;fill-rule:evenodd;stroke:none;stroke-width:0.20000000;stroke-miterlimit:4.0000000;stroke-dashoffset:0.00000000;stroke-opacity:1.0000000"
       d="M 384.58614,348.26052 C 375.37362,347.85860 363.13327,349.48108 350.37386,375.42802 C 350.37386,375.42802 368.55140,372.49640 382.88067,376.49982 C 397.20993,380.50324 407.69092,391.44171 407.83574,390.30883 C 423.44379,376.14294 417.04336,360.78141 401.11861,352.75306 C 395.87517,349.96799 390.11364,348.50165 384.58614,348.26052 z "
       id="path18850"
       sodipodi:nodetypes="ccsccc" />
    <path
       style="fill:#ffd287;fill-opacity:1.0000000;fill-rule:evenodd;stroke:none;stroke-width:0.20000000;stroke-miterlimit:4.0000000;stroke-dashoffset:0.00000000;stroke-opacity:1.0000000"
       d="M 401.75037,354.57668 C 387.76785,347.14983 371.81172,349.20149 364.21547,358.95621 L 351.99717,374.64624 L 367.74936,376.45152 L 359.80674,381.81324 L 388.23231,380.27668 L 371.12265,387.63888 L 378.00941,391.29679 L 365.94954,390.92900 L 371.11170,394.07136 L 359.01322,397.44130 L 371.39408,403.43214 L 364.49635,406.20670 L 382.67895,412.93792 L 378.91020,415.95741 L 385.04894,417.60996 C 385.04894,417.60996 409.82748,386.82851 410.20194,386.34767 C 417.79821,376.59296 415.73289,362.00353 401.75037,354.57668 z "
       id="path16547"
       sodipodi:nodetypes="cccccccccccccccccc" />
    <path
       style="stroke-opacity:1.0000000;stroke-linejoin:miter;stroke-linecap:butt;stroke-width:1.0000000px;stroke:none;fill-rule:evenodd;fill-opacity:0.50196081;fill:#b5b5b5"
       d="M 351.64172,376.40541 L 363.80393,361.09872 L 367.64946,360.07259 L 374.58120,358.21110 L 371.46010,363.24769 L 382.13571,359.52177 L 373.94815,366.74928 L 387.63448,362.42636 L 376.33350,371.47040 L 392.47759,365.38815 L 383.50297,374.09595 L 395.90060,369.95873 L 389.14548,375.67417 L 397.45010,374.85113 L 390.90858,378.17167 L 397.93221,378.49394 L 391.49387,381.55541 L 396.02227,382.61548 L 385.25066,387.19495 L 398.03080,386.91171 L 381.98195,391.51195 L 396.11073,391.76660 L 381.20641,399.52138 L 393.95921,397.27595 L 385.38441,405.48530 L 392.63330,402.55804 L 385.64746,417.85475 L 378.28455,416.17752 L 382.50712,412.92986 L 363.56031,408.57800 L 369.15884,403.32526 L 357.56852,398.65234 L 369.84716,393.94792 L 363.72180,392.40488 L 376.51433,391.13020 L 368.82894,385.96668 L 385.07755,380.92004 L 357.48732,380.78472 L 364.63430,376.80591 L 351.64172,376.40541 z "
       id="path20379"
       sodipodi:nodetypes="cccccccccccccccccccccccccccccccccccccccc" />
    <path
       style="fill:#000000;fill-opacity:0.50196081;fill-rule:evenodd;stroke:none;stroke-width:0.20000000;stroke-miterlimit:4.0000000;stroke-dashoffset:0.00000000;stroke-opacity:1.0000000"
       d="M 327.00732,632.89879 C 327.91419,632.89879 328.65946,633.55228 328.65944,634.38513 C 328.65944,635.21800 327.91419,635.90244 327.00732,635.90243 C 326.10047,635.90243 325.35520,635.21800 325.35520,634.38513 C 325.35520,633.55228 326.10047,632.89877 327.00732,632.89879 z M 338.26869,633.05361 C 339.17556,633.05361 339.92081,633.73805 339.92081,634.57093 C 339.92081,635.40380 339.17556,636.08822 338.26869,636.08823 C 337.36182,636.08823 336.61658,635.40380 336.61657,634.57093 C 336.61657,633.73805 337.36181,633.05361 338.26869,633.05361 z M 315.88082,633.33230 C 316.78769,633.33230 317.49920,634.01675 317.49922,634.84961 C 317.49922,635.68248 316.78770,636.33595 315.88082,636.33595 C 314.97397,636.33595 314.22872,635.68249 314.22872,634.84961 C 314.22872,634.01675 314.97397,633.33230 315.88082,633.33230 z M 330.51386,640.33049 C 331.42073,640.33049 332.16598,641.01491 332.16598,641.84779 C 332.16598,642.68065 331.42072,643.36510 330.51386,643.36510 C 329.60699,643.36510 328.86174,642.68064 328.86173,641.84779 C 328.86173,641.01492 329.60696,640.33049 330.51386,640.33049 z M 321.10690,640.67110 C 322.01377,640.67110 322.75902,641.35553 322.75902,642.18841 C 322.75902,643.02126 322.01375,643.70574 321.10690,643.70572 C 320.20004,643.70572 319.45479,643.02126 319.45478,642.18841 C 319.45478,641.35554 320.20003,640.67111 321.10690,640.67110 z M 309.84554,641.19753 C 310.75241,641.19753 311.49763,641.88193 311.49765,642.71481 C 311.49765,643.54768 310.75241,644.20117 309.84554,644.20117 C 308.93869,644.20117 308.22713,643.54767 308.22713,642.71481 C 308.22713,641.88196 308.93869,641.19754 309.84554,641.19753 z M 315.74595,650.17748 C 316.65281,650.17748 317.39806,650.83094 317.39807,651.66381 C 317.39807,652.49668 316.65282,653.18111 315.74595,653.18111 C 314.83909,653.18111 314.12756,652.49667 314.12756,651.66381 C 314.12756,650.83096 314.83910,650.17748 315.74595,650.17748 z M 305.96813,650.67292 C 306.87500,650.67292 307.62027,651.35737 307.62025,652.19024 C 307.62025,653.02309 306.87500,653.70753 305.96813,653.70754 C 305.06126,653.70754 304.34971,653.02311 304.34972,652.19024 C 304.34972,651.35737 305.06125,650.67292 305.96813,650.67292 z M 324.44485,651.01354 C 325.35172,651.01354 326.06327,651.69797 326.06325,652.53086 C 326.06325,653.36372 325.35172,654.04814 324.44485,654.04814 C 323.53799,654.04814 322.79276,653.36370 322.79274,652.53086 C 322.79274,651.69798 323.53799,651.01355 324.44485,651.01354 z M 310.58731,659.83868 C 311.49418,659.83868 312.23941,660.49217 312.23943,661.32502 C 312.23943,662.15789 311.49418,662.84234 310.58731,662.84233 C 309.68044,662.84233 308.93518,662.15789 308.93518,661.32502 C 308.93518,660.49217 309.68044,659.83868 310.58731,659.83868 z "
       id="path24214"
       inkscape:export-filename="D:\path3628.png"
       inkscape:export-xdpi="90.000000"
       inkscape:export-ydpi="90.000000" />
    <path
       style="fill:#000000;fill-opacity:0.50196081;fill-rule:evenodd;stroke:none;stroke-width:0.20000000;stroke-miterlimit:4.0000000;stroke-dashoffset:0.00000000;stroke-opacity:1.0000000"
       d="M 162.98196,352.37014 C 176.96448,344.94329 194.47888,346.83407 202.07515,356.58880 L 214.38272,375.21952 L 199.84431,376.38011 L 206.83144,382.52657 L 182.03443,381.00344 L 195.47931,386.67716 L 190.77131,389.30105 L 200.82585,389.99839 L 195.71824,392.58809 L 207.20806,396.80501 L 195.10615,402.77089 L 202.64875,406.37354 L 182.94103,412.34376 L 186.96806,415.50330 L 183.41649,422.10294 L 179.71982,436.85062 L 166.32593,439.52885 L 175.43451,433.55101 L 173.42432,430.05955 L 178.49386,425.88819 L 175.87710,424.01274 L 181.20336,421.36851 C 178.81294,418.33513 151.76970,383.95464 151.41385,383.49766 C 143.81756,373.74293 148.99945,359.79698 162.98196,352.37014 z "
       id="path1324" />
    <path
       style="fill:#000000;fill-opacity:1.0000000;fill-rule:evenodd;stroke:none;stroke-width:0.20000000;stroke-miterlimit:4.0000000;stroke-dashoffset:0.00000000;stroke-opacity:1.0000000"
       d="M 179.60416,347.73192 C 188.81668,347.33000 201.05703,348.95248 213.81644,374.89942 C 213.81644,374.89942 195.63890,371.96780 181.30963,375.97122 C 166.98037,379.97464 156.49938,390.91311 156.35456,389.78023 C 140.74651,375.61434 147.14694,360.25281 163.07169,352.22446 C 168.31513,349.43939 174.07666,347.97305 179.60416,347.73192 z "
       id="path1326"
       sodipodi:nodetypes="ccsccc" />
    <path
       style="stroke-opacity:1.0000000;stroke-dashoffset:0.00000000;stroke-miterlimit:4.0000000;stroke-width:0.20000000;stroke:none;fill-rule:evenodd;fill-opacity:1.0000000;fill:#ffd287"
       d="M 162.43993,354.04808 C 176.42245,346.62123 192.37858,348.67289 199.97483,358.42761 L 212.19313,374.11764 L 196.44094,375.92292 L 204.38356,381.28464 L 175.95799,379.74808 L 193.06765,387.11028 L 186.18089,390.76819 L 198.24076,390.40040 L 193.07860,393.54276 L 205.17708,396.91270 L 192.79622,402.90354 L 199.69395,405.67810 L 181.51135,412.40932 L 185.28010,415.42881 L 179.14136,417.08136 C 179.14136,417.08136 154.36282,386.29991 153.98836,385.81907 C 146.39209,376.06436 148.45741,361.47493 162.43993,354.04808 z "
       id="path1328"
       sodipodi:nodetypes="cccccccccccccccccc" />
    <path
       style="stroke-opacity:1.0000000;stroke-linejoin:miter;stroke-linecap:butt;stroke-width:1.0000000px;stroke:none;fill-rule:evenodd;fill-opacity:0.50196081;fill:#b5b5b5"
       d="M 212.54858,375.87681 L 200.38637,360.57012 L 196.54084,359.54399 L 189.60910,357.68250 L 192.73020,362.71909 L 182.05459,358.99317 L 190.24215,366.22068 L 176.55582,361.89776 L 187.85680,370.94180 L 171.71271,364.85955 L 180.68733,373.56735 L 168.28970,369.43013 L 175.04482,375.14557 L 166.74020,374.32253 L 173.28172,377.64307 L 166.25809,377.96534 L 172.69643,381.02681 L 168.16803,382.08688 L 178.93964,386.66635 L 166.15950,386.38311 L 182.20835,390.98335 L 168.07957,391.23800 L 182.98389,398.99278 L 170.23109,396.74735 L 178.80589,404.95670 L 171.55700,402.02944 L 178.54284,417.32615 L 185.90575,415.64892 L 181.68318,412.40126 L 200.62999,408.04940 L 195.03146,402.79666 L 206.62178,398.12374 L 194.34314,393.41932 L 200.46850,391.87628 L 187.67597,390.60160 L 195.36136,385.43808 L 179.11275,380.39144 L 206.70298,380.25612 L 199.55600,376.27731 L 212.54858,375.87681 z "
       id="path1330"
       sodipodi:nodetypes="cccccccccccccccccccccccccccccccccccccccc" />
    <path
       style="fill:#000000;fill-opacity:0.50196081;fill-rule:evenodd;stroke:none;stroke-width:0.20000000;stroke-miterlimit:4.0000000;stroke-dashoffset:0.00000000;stroke-opacity:1.0000000"
       d="M 232.12193,633.33283 C 231.21506,633.33283 230.46981,633.98630 230.46982,634.81916 C 230.46982,635.65204 231.21506,636.33649 232.12193,636.33648 C 233.02879,636.33648 233.77405,635.65204 233.77405,634.81916 C 233.77405,633.98630 233.02879,633.33282 232.12193,633.33283 z M 220.86056,633.48764 C 219.95370,633.48764 219.20844,634.17209 219.20844,635.00497 C 219.20844,635.83783 219.95370,636.52225 220.86056,636.52227 C 221.76743,636.52227 222.51268,635.83783 222.51269,635.00497 C 222.51269,634.17209 221.76745,633.48764 220.86056,633.48764 z M 243.24844,633.76634 C 242.34156,633.76634 241.63005,634.45079 241.63003,635.28364 C 241.63003,636.11651 242.34155,636.76999 243.24844,636.76999 C 244.15530,636.76999 244.90054,636.11653 244.90054,635.28364 C 244.90054,634.45079 244.15530,633.76634 243.24844,633.76634 z M 228.61539,640.76452 C 227.70852,640.76452 226.96327,641.44894 226.96327,642.28182 C 226.96327,643.11469 227.70854,643.79913 228.61539,643.79913 C 229.52226,643.79913 230.26751,643.11468 230.26752,642.28182 C 230.26752,641.44895 229.52229,640.76452 228.61539,640.76452 z M 238.02235,641.10514 C 237.11548,641.10514 236.37023,641.78956 236.37023,642.62246 C 236.37023,643.45532 237.11550,644.13977 238.02235,644.13975 C 238.92921,644.13975 239.67446,643.45532 239.67447,642.62246 C 239.67447,641.78958 238.92922,641.10516 238.02235,641.10514 z M 249.28372,641.63156 C 248.37685,641.63156 247.63161,642.31597 247.63160,643.14886 C 247.63160,643.98173 248.37685,644.63520 249.28372,644.63520 C 250.19057,644.63520 250.90212,643.98171 250.90212,643.14886 C 250.90212,642.31600 250.19057,641.63157 249.28372,641.63156 z M 243.38329,650.61152 C 242.47644,650.61152 241.73119,651.26497 241.73118,652.09785 C 241.73118,652.93072 242.47643,653.61515 243.38329,653.61515 C 244.29017,653.61515 245.00171,652.93071 245.00171,652.09785 C 245.00171,651.26499 244.29015,650.61152 243.38329,650.61152 z M 253.16112,651.10696 C 252.25425,651.10696 251.50900,651.79140 251.50901,652.62428 C 251.50901,653.45713 252.25425,654.14157 253.16112,654.14158 C 254.06799,654.14158 254.77955,653.45714 254.77953,652.62428 C 254.77953,651.79140 254.06801,651.10696 253.16112,651.10696 z M 234.68441,651.44759 C 233.77753,651.44759 233.06599,652.13201 233.06600,652.96488 C 233.06600,653.79774 233.77753,654.48218 234.68441,654.48218 C 235.59127,654.48218 236.33649,653.79773 236.33651,652.96488 C 236.33651,652.13202 235.59127,651.44759 234.68441,651.44759 z M 248.54194,660.27271 C 247.63507,660.27271 246.88984,660.92620 246.88982,661.75906 C 246.88982,662.59193 247.63507,663.27637 248.54194,663.27635 C 249.44881,663.27635 250.19408,662.59193 250.19408,661.75906 C 250.19408,660.92620 249.44881,660.27271 248.54194,660.27271 z "
       id="path1334"
       inkscape:export-filename="D:\path3628.png"
       inkscape:export-xdpi="90.000000"
       inkscape:export-ydpi="90.000000" />
    <path
       inkscape:export-ydpi="90.000000"
       inkscape:export-xdpi="90.000000"
       inkscape:export-filename="D:\path3628.png"
       id="rect4484"
       d="M 99.071121,610.70300 L 98.628352,612.41678 L 216.84751,634.83187 L 217.29028,633.14529 L 99.071121,610.70300 z M 102.83465,641.68696 L 102.83465,643.42794 L 223.90018,643.42794 L 223.90018,641.68696 L 102.83465,641.68696 z M 230.66821,652.45927 L 109.60268,666.98555 L 109.60268,668.72653 L 230.66821,654.20025 L 230.66821,652.45927 z M 245.21631,662.33388 L 124.15079,685.61945 L 124.15079,687.36043 L 245.21631,664.07486 L 245.21631,662.33388 z "
       style="fill:#bebebe;fill-opacity:1.0000000;fill-rule:evenodd;stroke:none;stroke-width:0.10000000;stroke-miterlimit:4.0000000;stroke-dashoffset:0.00000000;stroke-opacity:1.0000000" />
    <path
       inkscape:export-ydpi="90.000000"
       inkscape:export-xdpi="90.000000"
       inkscape:export-filename="D:\path3628.png"
       id="path4495"
       d="M 461.11200,610.33673 L 461.55477,612.05051 L 343.33561,634.46559 L 342.89285,632.77903 L 461.11200,610.33673 z M 457.34847,641.32069 L 457.34847,643.06167 L 336.28295,643.06167 L 336.28295,641.32069 L 457.34847,641.32069 z M 329.51492,652.09299 L 450.58044,666.61928 L 450.58044,668.36025 L 329.51492,653.83397 L 329.51492,652.09299 z M 314.96681,661.96760 L 436.03234,685.25318 L 436.03234,686.99416 L 314.96681,663.70857 L 314.96681,661.96760 z "
       style="fill:#bebebe;fill-opacity:1.0000000;fill-rule:evenodd;stroke:none;stroke-width:0.10000000;stroke-miterlimit:4.0000000;stroke-dashoffset:0.00000000;stroke-opacity:1.0000000" />
  </g>
</svg>
