<svg width="168" height="75" viewBox="0 0 168 75" fill="none" xmlns="http://www.w3.org/2000/svg">
<path d="M26.498 74.14C21.61 74.14 17.192 73.012 13.244 70.756C9.35867 68.5 6.25667 65.4293 3.938 61.544C1.682 57.596 0.522667 53.178 0.46 48.29V3.92198C0.46 2.79398 0.773334 1.91665 1.4 1.28998C2.08933 0.600647 2.998 0.255981 4.126 0.255981C5.19133 0.255981 6.03733 0.600647 6.664 1.28998C7.35333 1.91665 7.698 2.79398 7.698 3.92198V31.558C9.766 28.6126 12.492 26.2626 15.876 24.508C19.3227 22.6906 23.1453 21.782 27.344 21.782C32.1693 21.782 36.4933 22.9413 40.316 25.26C44.1387 27.516 47.1467 30.618 49.34 34.566C51.596 38.514 52.724 42.9633 52.724 47.914C52.724 52.9273 51.5647 57.408 49.246 61.356C46.99 65.304 43.888 68.4373 39.94 70.756C35.992 73.012 31.5113 74.14 26.498 74.14ZM26.498 67.56C30.1327 67.56 33.3913 66.714 36.274 65.022C39.1567 63.2673 41.4127 60.9173 43.042 57.972C44.734 55.0266 45.58 51.674 45.58 47.914C45.58 44.2166 44.734 40.8953 43.042 37.95C41.4127 34.942 39.1567 32.592 36.274 30.9C33.3913 29.208 30.1327 28.362 26.498 28.362C22.926 28.362 19.6987 29.208 16.816 30.9C13.9333 32.592 11.6773 34.942 10.048 37.95C8.41867 40.8953 7.604 44.2166 7.604 47.914C7.604 51.674 8.41867 55.0266 10.048 57.972C11.6773 60.9173 13.9333 63.2673 16.816 65.022C19.6987 66.714 22.926 67.56 26.498 67.56ZM72.0909 73.67C70.9629 73.67 70.0543 73.3566 69.3649 72.73C68.7383 72.0406 68.4249 71.132 68.4249 70.004V25.918C68.4249 24.79 68.7383 23.9126 69.3649 23.286C70.0543 22.5966 70.9629 22.252 72.0909 22.252C73.1563 22.252 74.0023 22.5966 74.6289 23.286C75.3183 23.9126 75.6629 24.79 75.6629 25.918V70.004C75.6629 71.132 75.3183 72.0406 74.6289 72.73C74.0023 73.3566 73.1563 73.67 72.0909 73.67ZM71.9969 12.476C70.6183 12.476 69.4276 11.9746 68.4249 10.972C67.4223 9.96931 66.9209 8.74731 66.9209 7.30598C66.9209 5.73931 67.4223 4.51731 68.4249 3.63998C69.4903 2.69998 70.7123 2.22998 72.0909 2.22998C73.4069 2.22998 74.5663 2.69998 75.5689 3.63998C76.6343 4.51731 77.1669 5.73931 77.1669 7.30598C77.1669 8.74731 76.6656 9.96931 75.6629 10.972C74.6603 11.9746 73.4383 12.476 71.9969 12.476ZM105.185 73.67C102.678 73.67 100.422 72.9806 98.4168 71.602C96.4741 70.2233 94.9388 68.312 93.8108 65.868C92.7455 63.424 92.2128 60.604 92.2128 57.408V3.82798C92.2128 2.76265 92.5261 1.91665 93.1528 1.28998C93.8421 0.600647 94.7195 0.255981 95.7848 0.255981C96.8501 0.255981 97.6961 0.600647 98.3228 1.28998C99.0121 1.91665 99.3568 2.76265 99.3568 3.82798V57.408C99.3568 60.1026 99.8895 62.296 100.955 63.988C102.083 65.68 103.493 66.526 105.185 66.526H107.535C108.475 66.526 109.227 66.8706 109.791 67.56C110.355 68.1866 110.637 69.0326 110.637 70.098C110.637 71.1633 110.229 72.0406 109.415 72.73C108.663 73.3566 107.66 73.67 106.407 73.67H105.185ZM141.182 74.14C136.232 74.14 131.782 73.012 127.834 70.756C123.886 68.4373 120.753 65.304 118.434 61.356C116.178 57.408 115.05 52.9273 115.05 47.914C115.05 42.9633 116.147 38.514 118.34 34.566C120.596 30.618 123.636 27.516 127.458 25.26C131.281 22.9413 135.605 21.782 140.43 21.782C144.629 21.782 148.42 22.6906 151.804 24.508C155.188 26.2626 157.914 28.6126 159.982 31.558V3.92198C159.982 2.79398 160.327 1.91665 161.016 1.28998C161.706 0.600647 162.583 0.255981 163.648 0.255981C164.714 0.255981 165.591 0.600647 166.28 1.28998C166.97 1.91665 167.314 2.79398 167.314 3.92198V48.29C167.189 53.178 165.967 57.596 163.648 61.544C161.392 65.4293 158.29 68.5 154.342 70.756C150.457 73.012 146.07 74.14 141.182 74.14ZM141.182 67.56C144.817 67.56 148.044 66.714 150.864 65.022C153.747 63.2673 156.003 60.9173 157.632 57.972C159.324 55.0266 160.17 51.674 160.17 47.914C160.17 44.2166 159.324 40.8953 157.632 37.95C156.003 34.942 153.747 32.592 150.864 30.9C148.044 29.208 144.817 28.362 141.182 28.362C137.61 28.362 134.383 29.208 131.5 30.9C128.618 32.592 126.33 34.942 124.638 37.95C122.946 40.8953 122.1 44.2166 122.1 47.914C122.1 51.674 122.946 55.0266 124.638 57.972C126.33 60.9173 128.618 63.2673 131.5 65.022C134.383 66.714 137.61 67.56 141.182 67.56Z" fill="#3A78A3"/>
</svg>
