<svg width="15" height="18" viewBox="0 0 15 18" fill="none" xmlns="http://www.w3.org/2000/svg">
<path d="M1 6.77778L2.00936 13.9209C2.21643 15.3876 2.32043 16.1218 2.84507 16.5609C3.37064 17 4.14321 17 5.69021 17H9.30979C10.8568 17 11.6303 17 12.1549 16.5609C12.6796 16.1218 12.7836 15.3876 12.9906 13.9209L14 6.77778M4.71429 3.66667C4.71429 2.83822 4.71429 2.424 4.85543 2.09778C4.94876 1.88194 5.08562 1.68582 5.25817 1.52064C5.43073 1.35546 5.6356 1.22446 5.86107 1.13511C6.20186 1 6.63457 1 7.5 1C8.36543 1 8.79814 1 9.13893 1.13511C9.3644 1.22446 9.56927 1.35546 9.74183 1.52064C9.91438 1.68582 10.0512 1.88194 10.1446 2.09778C10.2857 2.424 10.2857 2.83822 10.2857 3.66667M14 3.66667H1" stroke="#4A4A4A" stroke-linecap="round" stroke-linejoin="round"/>
</svg>
