<svg width="45" height="44" viewBox="0 0 45 44" fill="none" xmlns="http://www.w3.org/2000/svg">
<path d="M41.6061 20.7213V19.6789C41.6061 15.7469 41.6061 13.7829 40.3844 12.5612C39.1627 11.3395 37.1987 11.3395 33.2667 11.3395H32.2242C30.179 11.3395 29.1553 11.3395 28.2755 10.8996C27.3936 10.4596 26.7807 9.64029 25.5527 8.00368L24.3018 6.33578C23.0738 4.69916 22.4608 3.87981 21.5789 3.43991C20.6991 3 19.6754 3 17.6302 3H11.3756C7.44354 3 5.47959 3 4.25786 4.22173C3.03613 5.44346 3.03613 7.4074 3.03613 11.3395V32.1881C3.03613 36.1202 3.03613 38.0841 4.25786 39.3058C5.47959 40.5276 7.44354 40.5276 11.3756 40.5276H19.7151" stroke="white" stroke-width="5" stroke-linecap="round"/>
<path d="M30.1396 39.4851L40.564 29.0608M30.1396 29.0608L40.564 39.4851" stroke="white" stroke-width="5" stroke-linecap="round" stroke-linejoin="round"/>
<path d="M34.3092 11.3395H4.07861" stroke="white" stroke-width="5"/>
</svg>
