<svg width="44" height="42" viewBox="0 0 44 42" fill="none" xmlns="http://www.w3.org/2000/svg">
<path d="M28.2752 10.7264L24.3339 5.71205C23.0443 4.07193 22.4005 3.25083 21.4743 2.80999C20.5503 2.36914 19.4752 2.36914 17.3272 2.36914H10.7584C6.62882 2.36914 4.56621 2.36914 3.28311 3.59348C2 4.81782 2 6.78596 2 10.7264M28.2752 10.7264H32.6544C36.784 10.7264 38.8466 10.7264 40.1297 11.9508C41.4128 13.1751 41.4128 15.1432 41.4128 19.0837V31.6196C41.4128 35.56 41.4128 37.5282 40.1297 38.7525C38.8466 39.9769 36.784 39.9769 32.6544 39.9769H10.7584C6.62882 39.9769 4.56621 39.9769 3.28311 38.7525C2 37.5282 2 35.56 2 31.6196V10.7264M28.2752 10.7264H2" stroke="black" stroke-width="3.86401" stroke-linecap="round"/>
</svg>
