<svg width="53" height="51" viewBox="0 0 53 51" fill="none" xmlns="http://www.w3.org/2000/svg">
<path d="M44.7898 20.5872V37.7525H50.0135V20.5872H44.7898ZM36.9542 45.1091H16.0593V50.0135H36.9542V45.1091ZM8.22373 37.7525V20.5872H3.00001V37.7525H8.22373ZM16.0593 45.1091C13.5232 45.1091 11.8829 45.1042 10.6763 44.9522C9.54272 44.8075 9.1875 44.577 8.989 44.3906L5.29583 47.858C6.62788 49.1086 8.26813 49.5966 9.9789 49.8124C11.6191 50.0184 13.6695 50.0135 16.0593 50.0135V45.1091ZM3.00001 37.7525C3.00001 39.9963 2.99479 41.9237 3.21418 43.4612C3.44403 45.0674 3.96379 46.6098 5.29583 47.858L8.989 44.3906C8.7905 44.2042 8.54499 43.8707 8.39089 42.8065C8.22895 41.676 8.22373 40.1336 8.22373 37.7525H3.00001ZM44.7898 37.7525C44.7898 40.1336 44.7845 41.6736 44.6226 42.8065C44.4685 43.8707 44.223 44.2042 44.0245 44.3906L47.7176 47.858C49.0497 46.6074 49.5695 45.0674 49.7993 43.4612C50.0187 41.9212 50.0135 39.9963 50.0135 37.7525H44.7898ZM36.9542 50.0135C39.344 50.0135 41.3969 50.0184 43.0346 49.8124C44.7453 49.5966 46.3882 49.1086 47.7176 47.858L44.0245 44.3906C43.826 44.577 43.4708 44.8075 42.3372 44.9522C41.1305 45.1042 39.4903 45.1091 36.9542 45.1091V50.0135Z" fill="black"/>
<path d="M3 23.0393L19.1204 7.90439C22.602 4.63561 24.3441 3 26.5067 3C28.6693 3 30.4115 4.63561 33.8931 7.90439L50.0135 23.0393" stroke="black" stroke-width="5" stroke-linecap="round"/>
<path d="M18.6711 37.7526C18.6711 35.4671 18.6711 34.3244 19.0681 33.4245C19.3307 32.829 19.7156 32.288 20.201 31.8323C20.6863 31.3766 21.2626 31.0152 21.8968 30.7687C22.8553 30.396 24.0725 30.396 26.5067 30.396C28.941 30.396 30.1581 30.396 31.1167 30.7687C31.7509 31.0152 32.3271 31.3766 32.8125 31.8323C33.2978 32.288 33.6828 32.829 33.9453 33.4245C34.3423 34.3244 34.3423 35.4671 34.3423 37.7526V47.5614H18.6711V37.7526ZM36.9542 7.10017C36.9542 5.95744 36.9542 5.38608 37.1527 4.93488C37.4183 4.33522 37.9265 3.85899 38.5657 3.61069C39.0463 3.42187 39.6548 3.42188 40.8719 3.42188C42.0891 3.42188 42.6976 3.42187 43.1782 3.60824C43.8169 3.85765 44.3242 4.33476 44.5886 4.93488C44.7897 5.38608 44.7897 5.95744 44.7897 7.10017V20.5872L36.9542 12.0046V7.10017Z" fill="black"/>
</svg>
