<svg width="34" height="34" viewBox="0 0 34 34" fill="none" xmlns="http://www.w3.org/2000/svg">
<path d="M27.625 4.25L6.375 4.25C5.20139 4.25 4.25 5.20139 4.25 6.375L4.25 27.625C4.25 28.7986 5.20139 29.75 6.375 29.75L27.625 29.75C28.7986 29.75 29.75 28.7986 29.75 27.625L29.75 6.375C29.75 5.20139 28.7986 4.25 27.625 4.25Z" stroke="black" stroke-width="2" stroke-linejoin="round"/>
<path d="M4.25 19.8333L11.8243 12.8903C12.3526 12.406 13.1593 12.3925 13.7035 12.8589L22.6667 20.5417" stroke="black" stroke-width="2" stroke-linecap="round" stroke-linejoin="round"/>
<path d="M19.8333 17L23.2146 13.6188C23.713 13.1203 24.5022 13.0642 25.0663 13.4872L29.75 17" stroke="black" stroke-width="2" stroke-linecap="round" stroke-linejoin="round"/>
<path d="M4.25 14.1667L4.25 21.25" stroke="black" stroke-width="2" stroke-linecap="round" stroke-linejoin="round"/>
<path d="M29.75 14.1667V21.25" stroke="black" stroke-width="2" stroke-linecap="round" stroke-linejoin="round"/>
</svg>
